<?xml version="1.0" standalone="no"?>
<!DOCTYPE svg PUBLIC "-//W3C//DTD SVG 20010904//EN"
 "http://www.w3.org/TR/2001/REC-SVG-20010904/DTD/svg10.dtd">
<svg version="1.0" xmlns="http://www.w3.org/2000/svg"
 width="200.000000pt" height="200.000000pt" viewBox="0 0 200.000000 200.000000"
 preserveAspectRatio="xMidYMid meet">

<g transform="translate(0.000000,200.000000) scale(0.100000,-0.100000)"
fill="#000000" stroke="none">
<path d="M930 1951 c-49 -26 -83 -93 -77 -150 5 -50 29 -86 78 -119 28 -20 43
-23 87 -20 65 6 100 29 130 91 29 57 23 112 -15 158 -51 60 -135 77 -203 40z"/>
<path d="M768 1618 c-65 -34 -128 -99 -128 -130 0 -93 -73 -934 -90 -1043 -6
-33 -10 -63 -10 -66 0 -3 61 -19 135 -35 l135 -28 0 -128 c0 -115 2 -130 20
-148 31 -31 85 -27 121 9 28 29 29 32 29 133 l0 103 25 0 25 0 0 -103 c0 -101
1 -104 29 -133 36 -36 90 -40 121 -9 18 18 20 33 20 148 l0 129 136 28 136 28
-6 31 c-12 59 -45 413 -66 701 -32 450 -27 411 -66 451 -19 19 -60 47 -92 62
-51 25 -62 27 -105 19 -45 -9 -48 -11 -43 -36 3 -14 12 -82 21 -151 8 -69 17
-140 20 -157 6 -31 4 -33 -25 -33 -29 0 -30 -1 -30 -50 l0 -50 -75 0 -75 0 0
50 c0 48 -1 50 -28 50 l-28 0 22 173 c13 94 24 177 24 183 0 6 -22 16 -50 21
-45 9 -54 8 -102 -19z"/>
</g>
</svg>
