<?xml version="1.0" standalone="no"?>
<!DOCTYPE svg PUBLIC "-//W3C//DTD SVG 20010904//EN"
 "http://www.w3.org/TR/2001/REC-SVG-20010904/DTD/svg10.dtd">
<svg version="1.0" xmlns="http://www.w3.org/2000/svg"
 width="500.000000pt" height="500.000000pt" viewBox="0 0 500.000000 500.000000"
 preserveAspectRatio="xMidYMid meet">

<g transform="translate(0.000000,500.000000) scale(0.100000,-0.100000)"
fill="#000000" stroke="none">
<path d="M2580 4337 c-221 -101 -608 -298 -613 -312 -23 -59 9 -115 67 -115
44 0 640 289 655 318 18 34 13 62 -18 93 -31 31 -51 35 -91 16z"/>
<path d="M2358 3997 c-136 -67 -250 -128 -253 -135 -9 -24 15 -54 40 -50 19 4
27 -4 54 -59 33 -68 38 -89 20 -95 -7 -2 -11 -23 -11 -49 l1 -45 -422 -138
c-267 -87 -434 -147 -455 -163 -68 -51 -90 -147 -53 -229 21 -46 57 -75 115
-94 76 -24 94 -15 484 243 202 134 373 246 380 251 9 5 24 -1 42 -19 20 -19
35 -26 50 -22 18 5 26 -4 54 -66 29 -64 32 -74 19 -89 -8 -9 -13 -25 -11 -35
7 -41 57 -25 308 100 198 99 246 126 248 144 4 24 -27 47 -51 38 -10 -4 -25
18 -50 74 -21 44 -37 87 -37 94 0 22 24 37 67 44 79 12 123 59 123 132 0 31
-7 49 -30 75 -53 59 -119 60 -188 0 -62 -52 -75 -47 -123 48 -35 70 -39 84
-29 103 18 33 9 60 -20 62 -15 1 -127 -49 -272 -120z m587 -81 c18 -8 38 -23
44 -34 19 -36 12 -41 -18 -12 -35 35 -71 45 -111 32 -16 -6 -30 -7 -30 -2 0 8
44 28 68 29 7 1 28 -5 47 -13z m-876 -430 c-2 -2 -123 -57 -269 -121 -390
-172 -398 -175 -430 -212 -30 -33 -37 -52 -42 -108 l-3 -30 -14 38 c-19 56 -7
117 32 162 30 34 54 45 372 155 324 112 364 125 354 116z"/>
<path d="M2910 3339 c-80 -39 -217 -106 -306 -149 -161 -77 -194 -102 -194
-146 0 -37 37 -74 75 -74 35 0 607 271 645 305 31 28 27 88 -6 114 -15 12 -36
21 -48 21 -11 0 -86 -32 -166 -71z"/>
<path d="M916 3084 c-12 -31 -5 -110 13 -149 23 -51 58 -83 99 -91 l32 -6 0
53 c0 71 -40 138 -111 190 -24 17 -28 17 -33 3z"/>
<path d="M4027 3060 c-61 -54 -87 -105 -87 -170 0 -58 13 -63 68 -30 61 37 94
127 76 206 l-9 36 -48 -42z"/>
<path d="M1163 2923 c-23 -14 -46 -37 -52 -50 -23 -50 -5 -153 27 -153 29 0
74 33 88 65 23 55 16 165 -10 165 -7 0 -31 -12 -53 -27z"/>
<path d="M3766 2928 c-10 -39 -7 -107 7 -141 16 -38 33 -53 69 -62 23 -6 29
-2 42 24 36 69 9 148 -65 186 -38 20 -46 19 -53 -7z"/>
<path d="M2024 2872 c-44 -4 -86 -50 -87 -96 -1 -36 -1 -36 -46 -36 -110 -1
-160 -32 -161 -102 0 -28 7 -42 31 -62 l31 -26 710 0 710 0 29 29 c39 39 39
80 0 123 l-29 33 -154 2 c-84 2 -166 4 -183 4 -35 2 -32 3 103 20 94 13 103
26 55 79 l-28 30 -475 3 c-261 1 -489 1 -506 -1z"/>
<path d="M848 2824 c-26 -8 -22 -26 15 -80 60 -88 136 -118 188 -75 l24 20
-24 46 c-32 62 -71 88 -135 91 -28 2 -59 0 -68 -2z"/>
<path d="M4023 2815 c-32 -13 -93 -94 -93 -121 0 -20 41 -44 74 -44 16 0 43 9
61 20 32 20 105 115 105 136 0 26 -96 32 -147 9z"/>
<path d="M1246 2733 c-20 -21 -39 -48 -43 -61 -8 -35 3 -89 27 -122 21 -29 22
-29 50 -15 59 30 74 90 49 191 -14 56 -34 57 -83 7z"/>
<path d="M3671 2733 c-6 -21 -11 -61 -11 -90 0 -41 5 -58 26 -82 36 -43 65
-41 92 8 12 21 22 56 22 76 0 31 -8 45 -44 81 -54 54 -72 56 -85 7z"/>
<path d="M1387 2582 c-63 -65 -67 -135 -11 -202 32 -38 46 -38 78 1 41 48 35
127 -17 217 l-13 22 -37 -38z"/>
<path d="M3540 2558 c-14 -31 -23 -73 -24 -101 0 -40 5 -53 31 -78 26 -26 34
-29 51 -20 50 27 78 121 51 174 -16 31 -61 77 -75 77 -6 0 -22 -24 -34 -52z"/>
<path d="M958 2588 c-38 -13 -35 -29 16 -81 78 -80 154 -101 202 -56 13 12 24
27 24 32 0 19 -61 85 -94 101 -38 18 -106 20 -148 4z"/>
<path d="M3892 2584 c-32 -16 -92 -83 -92 -101 0 -23 48 -53 84 -53 49 0 81
18 141 79 46 48 48 52 32 68 -24 24 -123 28 -165 7z"/>
<path d="M1534 2434 c-50 -84 -32 -162 46 -208 l33 -20 23 28 c40 45 33 109
-17 185 -22 33 -45 61 -49 61 -5 0 -21 -21 -36 -46z"/>
<path d="M3382 2421 c-49 -73 -59 -119 -37 -165 21 -43 38 -50 76 -31 52 27
85 101 69 156 -10 34 -50 99 -62 99 -3 0 -24 -27 -46 -59z"/>
<path d="M1124 2371 c-55 -25 -58 -33 -26 -63 49 -46 112 -79 162 -85 45 -5
51 -3 79 25 17 17 31 37 31 45 0 18 -65 72 -104 87 -41 15 -96 12 -142 -9z"/>
<path d="M3725 2376 c-41 -18 -95 -65 -95 -83 0 -28 56 -73 92 -73 57 1 198
82 198 114 0 21 -80 56 -126 56 -21 -1 -52 -7 -69 -14z"/>
<path d="M1714 2316 c-21 -67 -13 -115 26 -155 17 -16 46 -35 67 -42 32 -10
38 -10 50 7 40 55 23 122 -49 193 -29 28 -58 51 -64 51 -7 0 -21 -24 -30 -54z"/>
<path d="M3198 2328 c-60 -57 -82 -100 -75 -151 8 -57 26 -72 70 -58 40 14 93
69 103 106 11 43 -22 145 -46 145 -4 0 -28 -19 -52 -42z"/>
<path d="M1924 2255 c-13 -89 17 -151 86 -179 59 -23 96 -21 104 7 19 73 -8
126 -94 181 -74 48 -87 47 -96 -9z"/>
<path d="M2978 2265 c-83 -52 -112 -108 -92 -182 7 -27 46 -31 98 -9 72 30
106 99 91 186 -9 50 -23 51 -97 5z"/>
<path d="M1355 2194 c-41 -22 -85 -65 -79 -76 10 -16 89 -51 142 -64 86 -20
145 6 158 72 5 27 2 31 -43 54 -60 30 -137 36 -178 14z"/>
<path d="M3472 2183 c-41 -21 -52 -32 -52 -51 0 -30 51 -82 82 -83 75 -3 126
10 196 53 l33 20 -23 26 c-32 34 -95 62 -143 62 -25 0 -61 -10 -93 -27z"/>
<path d="M2161 2146 c-8 -9 -11 -52 -9 -126 3 -95 6 -115 21 -124 12 -8 22 -8
35 0 14 9 17 29 20 124 3 116 -4 140 -38 140 -10 0 -23 -6 -29 -14z"/>
<path d="M2781 2146 c-8 -9 -11 -52 -9 -126 3 -95 6 -115 21 -124 12 -8 22 -8
35 0 14 9 17 29 20 124 3 116 -4 140 -38 140 -10 0 -23 -6 -29 -14z"/>
<path d="M2267 2092 c-20 -22 -24 -141 -5 -160 23 -23 55 -14 67 18 l10 30
160 0 159 0 11 -30 c7 -23 16 -30 35 -30 34 0 46 26 46 98 0 45 -4 63 -19 76
-23 21 -46 12 -65 -25 -12 -24 -13 -24 -166 -24 -153 0 -155 0 -166 24 -11 22
-31 40 -45 41 -3 0 -13 -8 -22 -18z"/>
<path d="M1637 2066 c-22 -8 -50 -25 -64 -38 -25 -23 -58 -77 -51 -84 9 -9
126 -34 158 -34 50 0 104 17 124 39 10 11 20 37 23 59 5 37 3 40 -27 50 -56
20 -123 23 -163 8z"/>
<path d="M3255 2074 c-85 -21 -88 -24 -82 -66 10 -72 66 -105 166 -95 62 5
141 26 141 37 0 20 -63 89 -95 104 -40 19 -97 28 -130 20z"/>
<path d="M1909 1977 c-32 -17 -51 -37 -72 -76 -42 -77 -35 -84 71 -79 62 3
100 10 128 24 48 25 77 77 68 122 l-6 32 -73 0 c-56 0 -82 -5 -116 -23z"/>
<path d="M2895 1970 c-20 -91 65 -150 217 -150 50 0 70 4 74 14 7 19 -28 85
-63 118 -39 37 -73 48 -153 48 -68 0 -68 0 -75 -30z"/>
<path d="M490 1135 l0 -285 90 0 90 0 0 90 0 90 64 0 c84 0 160 38 194 96 19
33 22 51 20 111 -3 63 -7 76 -34 110 -49 60 -93 72 -271 72 l-153 1 0 -285z
m270 125 c24 -24 25 -38 4 -68 -11 -16 -25 -22 -55 -22 l-39 0 0 55 0 55 35 0
c22 0 43 -8 55 -20z"/>
<path d="M1255 1384 c-8 -20 -15 -40 -15 -45 0 -5 -7 -23 -15 -41 -12 -27 -77
-204 -151 -410 l-13 -38 92 0 93 0 14 43 15 42 94 0 94 0 15 -42 14 -43 93 0
94 0 -31 83 c-16 45 -63 172 -103 282 l-73 200 -101 3 -100 3 -16 -37z m143
-244 l20 -65 -45 -3 c-25 -2 -47 -1 -50 2 -3 2 6 36 18 75 13 39 26 68 30 64
4 -5 16 -37 27 -73z"/>
<path d="M1810 1135 l0 -285 90 0 90 0 0 123 0 122 82 -122 81 -123 104 0 104
0 -32 48 c-18 26 -63 91 -101 144 -37 53 -68 101 -68 106 0 4 17 31 38 60 79
109 142 200 142 206 0 3 -43 6 -94 6 l-95 0 -78 -114 -78 -115 -3 115 -3 114
-89 0 -90 0 0 -285z"/>
<path d="M2510 1135 l0 -285 170 0 170 0 0 65 0 64 -82 3 -83 3 -3 218 -2 217
-85 0 -85 0 0 -285z"/>
<path d="M3159 1393 c-10 -27 -156 -426 -185 -505 l-13 -38 92 0 93 0 14 43
15 42 94 0 94 0 15 -42 14 -43 89 0 c49 0 89 4 89 9 0 8 -127 364 -180 504
l-21 57 -100 0 c-99 0 -100 0 -110 -27z m139 -253 l20 -65 -45 -3 c-25 -2 -47
-1 -50 2 -3 2 6 36 18 75 13 39 26 68 30 64 4 -5 16 -37 27 -73z"/>
<path d="M3706 1358 c9 -35 35 -152 60 -261 24 -109 47 -209 50 -223 6 -24 8
-24 114 -24 95 0 109 2 114 18 3 9 17 79 32 155 15 77 30 133 34 125 4 -7 20
-77 35 -155 l28 -143 113 0 c105 0 114 2 114 19 0 10 25 128 55 262 30 134 58
254 60 267 5 22 4 22 -90 22 -61 0 -95 -4 -95 -11 0 -21 -42 -304 -47 -319 -3
-8 -22 62 -42 155 l-37 170 -96 3 -96 3 -17 -78 c-43 -202 -59 -272 -62 -269
-2 1 -12 70 -23 152 -12 82 -23 159 -26 172 -4 21 -9 22 -98 22 l-94 0 14 -62z"/>
</g>
</svg>
