<?xml version="1.0" standalone="no"?>
<!DOCTYPE svg PUBLIC "-//W3C//DTD SVG 20010904//EN"
 "http://www.w3.org/TR/2001/REC-SVG-20010904/DTD/svg10.dtd">
<svg version="1.0" xmlns="http://www.w3.org/2000/svg"
 width="220.000000pt" height="229.000000pt" viewBox="0 0 220.000000 229.000000"
 preserveAspectRatio="xMidYMid meet">

<g transform="translate(0.000000,229.000000) scale(0.100000,-0.100000)"
fill="#ffffff" stroke="none">
<path d="M0 1145 l0 -1145 1100 0 1100 0 0 1145 0 1145 -1100 0 -1100 0 0
-1145z m1661 814 c126 -49 212 -129 271 -255 l33 -69 3 -490 c3 -466 2 -492
-17 -555 -42 -135 -147 -249 -278 -302 -58 -23 -62 -23 -542 -26 -302 -2 -502
1 -532 7 -166 36 -320 187 -358 352 -6 26 -11 231 -11 505 0 431 1 466 20 525
37 121 123 225 229 279 115 58 131 59 646 57 l470 -2 66 -26z"/>
<path d="M704 1581 c-61 -28 -92 -107 -63 -164 6 -12 72 -84 147 -159 l137
-138 -137 -137 c-75 -76 -141 -148 -147 -160 -30 -59 7 -138 75 -162 67 -23
87 -12 242 142 l142 141 143 -141 c153 -152 173 -164 242 -141 66 22 108 116
75 168 -5 8 -71 77 -147 152 l-138 138 143 143 c89 89 145 153 150 172 25 87
-66 178 -153 153 -19 -5 -83 -61 -172 -150 l-143 -143 -138 139 c-76 76 -145
142 -153 146 -34 18 -66 18 -105 1z"/>
</g>
</svg>
