<?xml version="1.0" standalone="no"?>
<!DOCTYPE svg PUBLIC "-//W3C//DTD SVG 20010904//EN"
 "http://www.w3.org/TR/2001/REC-SVG-20010904/DTD/svg10.dtd">
<svg version="1.0" xmlns="http://www.w3.org/2000/svg"
 width="225.000000pt" height="225.000000pt" viewBox="0 0 225.000000 225.000000"
 preserveAspectRatio="xMidYMid meet">

<g transform="translate(0.000000,225.000000) scale(0.100000,-0.100000)"
fill="#ffffff" stroke="none">
<path d="M975 2239 c-233 -31 -449 -136 -621 -301 -110 -106 -172 -189 -234
-313 -177 -358 -153 -779 64 -1114 55 -86 186 -225 276 -292 86 -65 243 -142
353 -174 332 -94 703 -28 973 173 365 272 531 711 434 1152 -49 227 -153 405
-334 577 -147 139 -318 230 -515 274 -102 22 -298 32 -396 18z m233 -390 c85
-41 123 -145 84 -231 -65 -149 -280 -144 -338 7 -32 85 6 183 88 224 55 27
110 27 166 0z m61 -483 c8 -9 10 -148 9 -497 l-3 -484 -150 0 -150 0 -3 484
c-1 349 1 488 9 497 9 11 44 14 144 14 100 0 135 -3 144 -14z"/>
</g>
</svg>
