<svg class="svg-icon" style="width: 1.03515625em; height: 1em;vertical-align: middle;fill: currentColor;overflow: hidden;" viewBox="0 0 1060 1024" version="1.1" xmlns="http://www.w3.org/2000/svg"><path d="M963.34 420.105c-13.407 0-24.278 10.85-24.357 24.234l0 432.226c0 26.92-21.822 48.715-48.713 48.715l-730.841 0c-26.891 0-48.713-21.795-48.713-48.715l0-705.139c0-26.92 21.822-48.713 48.713-48.713l470.71 0c13.436-0.021 24.335-10.921 24.335-24.357 0-13.457-10.899-24.357-24.335-24.357l-475.579 0c-51.127 0-92.558 41.432-92.558 92.558l0 714.877c0 51.131 41.432 92.564 92.558 92.564l740.58 0c51.127 0 92.558-41.438 92.558-92.564l0-437.096c-0.073-13.384-10.949-24.234-24.357-24.234l0 0zM510.509 732.223l463.429-463.384c27.568-27.552 25.033-74.986-5.679-105.643l-43.766-43.823c-30.683-30.711-78.097-33.268-105.67-5.723l-463.429 463.479 155.116 155.092zM853.348 148.255c10.475-10.447 28.449-9.498 40.108 2.134l43.789 43.793c11.626 11.705 12.608 29.656 2.133 40.075l-51.427 51.428-85.35-86.685 50.746-50.746zM851.567 322.069l-344.549 344.603-86.059-86.03 345.258-345.253 85.35 86.678zM355.17 578.008l-47.636 174.558c-2.083 7.633 0.1 15.718 5.622 21.348 5.601 5.522 13.715 7.678 21.319 5.623l174.575-47.608-35.731-35.798-113.353 30.973 30.912-113.415-35.708-35.681zM355.17 578.008z"  /></svg>