<?xml version="1.0" standalone="no"?>
<!DOCTYPE svg PUBLIC "-//W3C//DTD SVG 20010904//EN"
 "http://www.w3.org/TR/2001/REC-SVG-20010904/DTD/svg10.dtd">
<svg version="1.0" xmlns="http://www.w3.org/2000/svg"
 width="225.000000pt" height="225.000000pt" viewBox="0 0 225.000000 225.000000"
 preserveAspectRatio="xMidYMid meet">

<g transform="translate(0.000000,225.000000) scale(0.100000,-0.100000)"
fill="#000000" stroke="none">
<path d="M985 2026 c-236 -37 -448 -165 -596 -361 -129 -170 -196 -421 -171
-637 51 -433 378 -759 812 -810 293 -34 594 87 792 319 158 185 239 450 209
689 -51 416 -361 738 -770 799 -113 17 -167 17 -276 1z m702 -468 c67 -67 83
-88 83 -113 0 -26 -51 -81 -403 -432 -373 -374 -405 -403 -437 -403 -31 0 -53
19 -247 213 l-214 212 89 88 c60 59 97 87 112 87 16 0 63 -39 157 -132 123
-123 133 -130 133 -103 0 25 46 75 317 347 175 175 320 318 323 318 2 0 42
-37 87 -82z"/>
</g>
</svg>
