<?xml version="1.0" standalone="no"?>
<!DOCTYPE svg PUBLIC "-//W3C//DTD SVG 20010904//EN"
 "http://www.w3.org/TR/2001/REC-SVG-20010904/DTD/svg10.dtd">
<svg version="1.0" xmlns="http://www.w3.org/2000/svg"
 width="302.000000pt" height="222.000000pt" viewBox="0 0 302.000000 222.000000"
 preserveAspectRatio="xMidYMid meet">

<g transform="translate(0.000000,222.000000) scale(0.100000,-0.100000)"
fill="#000000" stroke="none">
<path d="M1430 2163 c-261 -25 -510 -162 -657 -360 -59 -80 -126 -201 -144
-262 -11 -36 -15 -40 -53 -46 -147 -22 -253 -68 -346 -152 -149 -135 -222
-326 -199 -517 28 -232 167 -408 394 -502 l70 -29 295 -3 c275 -3 297 -2 319
15 31 25 32 80 1 105 -20 16 -45 18 -279 18 -340 0 -402 16 -523 136 -144 142
-178 347 -91 533 56 119 208 233 327 245 28 3 75 8 105 11 30 3 61 10 68 16 7
6 22 42 33 79 104 350 400 570 766 570 353 0 652 -219 759 -557 33 -102 46
-113 136 -113 292 0 509 -287 434 -575 -23 -85 -60 -147 -129 -214 -123 -117
-177 -131 -517 -131 -230 0 -259 -2 -277 -17 -32 -27 -37 -64 -12 -96 l21 -27
272 0 c301 0 352 7 460 61 163 81 276 219 322 395 19 74 19 222 0 294 -37 141
-137 280 -257 358 -65 42 -189 87 -270 97 -40 5 -47 10 -53 33 -12 47 -94 204
-137 260 -159 211 -389 342 -651 371 -94 11 -116 11 -187 4z"/>
<path d="M1255 1137 c-251 -187 -266 -204 -228 -255 34 -46 70 -41 149 20 151
116 249 188 257 188 4 0 7 -222 7 -494 0 -300 4 -505 10 -521 20 -53 104 -53
129 1 8 18 11 173 11 519 0 272 3 495 8 495 4 0 43 -28 87 -61 207 -158 238
-179 257 -179 27 0 56 17 68 40 23 43 2 67 -164 192 -88 67 -192 146 -230 175
-49 38 -78 53 -100 53 -24 0 -80 -37 -261 -173z"/>
</g>
</svg>
